<?xml version="1.0" encoding="utf-8"?>
<!-- Generator: Adobe Illustrator 16.0.0, SVG Export Plug-In . SVG Version: 6.00 Build 0)  -->
<!DOCTYPE svg PUBLIC "-//W3C//DTD SVG 1.1//EN" "http://www.w3.org/Graphics/SVG/1.1/DTD/svg11.dtd">
<svg version="1.1" id="Layer_1" xmlns="http://www.w3.org/2000/svg" xmlns:xlink="http://www.w3.org/1999/xlink" x="0px" y="0px"
	 width="50px" height="50px" viewBox="0 0 50 50" enable-background="new 0 0 50 50" xml:space="preserve">
<g>
	<defs>
		<rect id="SVGID_1_" width="50" height="50"/>
	</defs>
	<clipPath id="SVGID_2_">
		<use xlink:href="#SVGID_1_"  overflow="visible"/>
	</clipPath>
	<path clip-path="url(#SVGID_2_)" fill="#232F3D" d="M32.87,19.987c-1.504,0.351-2.758-0.664-1.396-1.875l9.627,0.055l3.737,8.319
		c1.964,1.731,4.23,1.833,4.496,4.88c0.339,3.91-0.196,8.395-0.095,12.358c-0.413,1.353-2.791,0.522-3.91,0.778
		c-0.756,4.035-6.247,5.218-8.731,2.087c-0.472-0.594-0.835-2.015-1.333-2.111l-16.087-0.008c-0.808,0.029-0.87,1.236-1.341,1.911
		c-2.354,3.374-8.16,2.238-8.906-1.879c-3.964,0.441-2.946-0.946-3.049-4.032c-0.69,0.011-1.311-0.166-1.482-0.91
		c-0.144-0.632-0.127-4.311,0.139-4.755c0.554-0.925,1.925-0.222,1.925,0.202v3.35H32.87V19.987z M39.663,19.987h-4.688v6.124h5.07
		c0.271,0,0.898,0.693,0.847,1.053l-0.655,1.052h-5.262v10.142h12.246v-7.559c0-0.553-3.668-2.437-4.188-3.085L39.663,19.987z
		 M9.716,40.464l-1.914-0.003c0.069,0.462-0.179,1.771,0.178,2.024l0.79-0.004L9.716,40.464z M16.757,43.395
		c0-1.637-1.326-2.962-2.963-2.962c-1.636,0-2.962,1.325-2.962,2.962c0,1.636,1.326,2.963,2.962,2.963
		C15.432,46.357,16.757,45.03,16.757,43.395 M36.314,40.462h-18.37l0.882,2.117h16.606L36.314,40.462z M43.426,43.396
		c0-1.638-1.328-2.964-2.965-2.964c-1.638,0-2.966,1.326-2.966,2.964s1.328,2.965,2.966,2.965
		C42.098,46.36,43.426,45.033,43.426,43.396 M47.222,40.462h-2.679c0.975,1.416,0.384,2.502,2.68,2.106L47.222,40.462z"/>
	<path clip-path="url(#SVGID_2_)" fill="#232F3D" d="M30.998,11.871c0,5.657-4.586,10.242-10.242,10.242
		c-5.657,0-10.243-4.585-10.243-10.242c0-5.657,4.586-10.242,10.243-10.242C26.412,1.629,30.998,6.214,30.998,11.871 M28.957,11.868
		c0-4.528-3.67-8.198-8.198-8.198c-4.527,0-8.198,3.67-8.198,8.198c0,4.528,3.671,8.198,8.198,8.198
		C25.287,20.066,28.957,16.396,28.957,11.868"/>
	<path clip-path="url(#SVGID_2_)" fill="#232F3D" d="M1.238,26.147l12.602-0.047c1.45,0.187,1.399,1.933-0.197,2.118
		c-2.454,0.287-9.42,0.289-11.871,0C0.429,28.061,0.113,26.888,1.238,26.147"/>
	<path clip-path="url(#SVGID_2_)" fill="#232F3D" d="M12.541,31.997c-0.583,0.584-7.713,0.053-9.038,0.232
		c-1.278-0.441-1.161-1.866,0.197-2.089c1.185-0.194,6.832-0.195,8.015,0C12.648,30.294,13.22,31.317,12.541,31.997"/>
	<path clip-path="url(#SVGID_2_)" fill="#232F3D" d="M6.464,23.336c-0.181,0.867-1.717,1.026-2.019,0.105
		c-0.207-0.633-0.202-4.786,0.196-5.181c0.191-0.188,0.333-0.169,0.568-0.197c0.673-0.079,4.252-0.1,4.756,0.05
		c0.897,0.265,0.509,1.874-0.152,1.874H6.464C6.325,20.969,6.654,22.427,6.464,23.336"/>
	<path clip-path="url(#SVGID_2_)" fill="#232F3D" d="M25.936,6.64c0.253,0.415,0.384,0.986,0.056,1.399
		c-1.001,0.626-4.176,4.633-4.932,4.841c-0.463,0.128-0.756-0.11-1.105-0.356c-0.321-0.225-2.875-2.806-2.934-3.007
		c-0.272-0.93,0.384-1.653,1.363-1.355c0.483,0.148,2.137,2.255,2.336,2.255c0.974-0.702,3.405-3.922,4.415-4.01
		C25.405,6.383,25.71,6.485,25.936,6.64"/>
</g>
</svg>
