<?xml version="1.0" encoding="utf-8"?>
<!-- Generator: Adobe Illustrator 16.0.0, SVG Export Plug-In . SVG Version: 6.00 Build 0)  -->
<!DOCTYPE svg PUBLIC "-//W3C//DTD SVG 1.1//EN" "http://www.w3.org/Graphics/SVG/1.1/DTD/svg11.dtd">
<svg version="1.1" id="Layer_1" xmlns="http://www.w3.org/2000/svg" xmlns:xlink="http://www.w3.org/1999/xlink" x="0px" y="0px"
	 width="50px" height="50px" viewBox="0 0 50 50" enable-background="new 0 0 50 50" xml:space="preserve">
<g>
	<defs>
		<rect id="SVGID_1_" width="50" height="50"/>
	</defs>
	<clipPath id="SVGID_2_">
		<use xlink:href="#SVGID_1_"  overflow="visible"/>
	</clipPath>
	<path clip-path="url(#SVGID_2_)" fill="#61CAE9" d="M0.897,11.981c0.112-0.715,2.102-5.944,2.507-6.699
		c0.171-0.319,0.333-0.6,0.729-0.641l34.668-0.012l1.082,0.337l2.6,7.165c0.108,0.163-0.066,0.361-0.066,0.437v9.4
		c0,0.369-0.98,0.369-0.98,0v-8.812l-0.293-0.294H27.14v5.777c0,0.128-0.537,0.446-0.799,0.397
		c-0.867-0.163-3.956-2.187-4.587-2.186c-1.46,0.353-3.425,1.935-4.783,2.177c-0.225,0.04-0.387-0.089-0.602-0.094v-5.777
		l-0.294-0.294H2.073v31.334h35.349c0.035,0,0.454,0.413,0.473,0.517c0.062,0.201-0.423,0.658-0.473,0.658H1.387
		c-0.065,0-0.297-0.259-0.49-0.196V11.981z M17.544,5.812H4.521l-2.253,5.875h14.101L17.544,5.812z M17.544,11.687h8.225
		L24.78,5.822l-6.035,0.015L17.544,11.687z M41.045,11.687c-0.72-1.953-1.267-4.059-2.252-5.875H25.965l0.979,5.875H41.045z
		 M25.965,17.562v-4.406l-0.294-0.294h-8.029l-0.294,0.294v4.406l4.406-1.944L25.965,17.562z"/>
	<path clip-path="url(#SVGID_2_)" fill="#61CAE9" d="M40.608,23.689c2.628-0.278,5.16,0.842,6.803,2.879
		c4.657,5.773-1.297,14.775-5.905,18.772c-0.566,0.11-2.106-1.829-2.521-2.316c-3.125-3.676-6.739-9.812-4.693-14.688
		C35.355,25.798,37.876,23.978,40.608,23.689 M40.409,24.859c-2.184,0.294-4.468,2.125-5.195,4.204
		c-1.698,4.846,2.661,11.684,6.294,14.728c3.823-3.621,8.987-11.52,5.016-16.529C45.095,25.458,42.688,24.552,40.409,24.859"/>
	<path clip-path="url(#SVGID_2_)" fill="#61CAE9" d="M14.164,22.505c4.677,0.295,10.241-0.568,14.814-0.026
		c3.187,0.378,2.729,4.133,0.599,4.472H13.736C11.682,26.627,11.516,22.95,14.164,22.505 M13.725,25.788h15.863
		c0.453,0,1.05-1.933-0.403-2.136c-4.658,0.29-9.902-0.449-14.49-0.027C13.271,23.755,12.889,24.639,13.725,25.788"/>
	<rect x="6.173" y="35.971" clip-path="url(#SVGID_2_)" fill="#61CAE9" width="15.3" height="1.176"/>
	<path clip-path="url(#SVGID_2_)" fill="#61CAE9" d="M6.479,39.104h9.204l0.301,0.49c0.013,0.201-0.408,0.685-0.496,0.685H6.479
		C6.158,40.279,6.007,39.296,6.479,39.104"/>
	<path clip-path="url(#SVGID_2_)" fill="#61CAE9" d="M45.601,31.376c0,2.329-1.888,4.217-4.217,4.217s-4.217-1.888-4.217-4.217
		s1.888-4.217,4.217-4.217S45.601,29.047,45.601,31.376 M44.465,31.376c0-1.696-1.375-3.07-3.07-3.07c-1.696,0-3.07,1.374-3.07,3.07
		s1.374,3.07,3.07,3.07C43.09,34.446,44.465,33.072,44.465,31.376"/>
</g>
</svg>
